<svg width="220" height="65" viewBox="0 0 220 65" fill="none" xmlns="http://www.w3.org/2000/svg">
<rect width="220" height="65" fill="#F2F2F2"/>
<g id="Luxury Travel with Yacht">
<rect width="1920" height="1200" transform="translate(-1618 -43)" fill="white"/>
<g id="Nav Bar" clip-path="url(#clip0_0_1)">
<g id="Button_Get_Started" clip-path="url(#clip1_0_1)">
<path id="Rectangle" fill-rule="evenodd" clip-rule="evenodd" d="M0 32.5C0 14.5507 14.5507 0 32.5 0H187.5C205.449 0 220 14.5507 220 32.5C220 50.4493 205.449 65 187.5 65H120.15H32.5C14.5507 65 0 50.4493 0 32.5Z" fill="url(#paint0_linear_0_1)"/>
<path id="Get Started" d="M35.1465 31.9736H43.6426V43.0771C42.2656 43.5264 40.9668 43.8389 39.7461 44.0146C38.5352 44.2002 37.2949 44.293 36.0254 44.293C32.793 44.293 30.3223 43.3457 28.6133 41.4512C26.9141 39.5469 26.0645 36.8174 26.0645 33.2627C26.0645 29.8057 27.0508 27.1104 29.0234 25.1768C31.0059 23.2432 33.75 22.2764 37.2559 22.2764C39.4531 22.2764 41.5723 22.7158 43.6133 23.5947L42.1045 27.2275C40.542 26.4463 38.916 26.0557 37.2266 26.0557C35.2637 26.0557 33.6914 26.7148 32.5098 28.0332C31.3281 29.3516 30.7373 31.124 30.7373 33.3506C30.7373 35.6748 31.2109 37.4521 32.1582 38.6826C33.1152 39.9033 34.502 40.5137 36.3184 40.5137C37.2656 40.5137 38.2275 40.416 39.2041 40.2207V35.7529H35.1465V31.9736ZM55.1855 30.4941C54.2383 30.4941 53.4961 30.7969 52.959 31.4023C52.4219 31.998 52.1143 32.8477 52.0361 33.9512H58.3057C58.2861 32.8477 57.998 31.998 57.4414 31.4023C56.8848 30.7969 56.1328 30.4941 55.1855 30.4941ZM55.8154 44.293C53.1787 44.293 51.1182 43.5654 49.6338 42.1104C48.1494 40.6553 47.4072 38.5947 47.4072 35.9287C47.4072 33.1846 48.0908 31.0654 49.458 29.5713C50.835 28.0674 52.7344 27.3154 55.1562 27.3154C57.4707 27.3154 59.2725 27.9746 60.5615 29.293C61.8506 30.6113 62.4951 32.4326 62.4951 34.7568V36.9248H51.9336C51.9824 38.1943 52.3584 39.1855 53.0615 39.8984C53.7646 40.6113 54.751 40.9678 56.0205 40.9678C57.0068 40.9678 57.9395 40.8652 58.8184 40.6602C59.6973 40.4551 60.6152 40.1279 61.5723 39.6787V43.1357C60.791 43.5264 59.9561 43.8145 59.0674 44C58.1787 44.1953 57.0947 44.293 55.8154 44.293ZM73.0273 40.7334C73.8086 40.7334 74.7461 40.5625 75.8398 40.2207V43.5459C74.7266 44.0439 73.3594 44.293 71.7383 44.293C69.9512 44.293 68.6475 43.8438 67.8271 42.9453C67.0166 42.0371 66.6113 40.6797 66.6113 38.873V30.9775H64.4727V29.0879L66.9336 27.5938L68.2227 24.1367H71.0791V27.623H75.6641V30.9775H71.0791V38.873C71.0791 39.5078 71.2549 39.9766 71.6064 40.2793C71.9678 40.582 72.4414 40.7334 73.0273 40.7334ZM99.9512 38.0527C99.9512 39.9863 99.2529 41.5098 97.8564 42.623C96.4697 43.7363 94.5361 44.293 92.0557 44.293C89.7705 44.293 87.749 43.8633 85.9912 43.0039V38.7852C87.4365 39.4297 88.6572 39.8838 89.6533 40.1475C90.6592 40.4111 91.5771 40.543 92.4072 40.543C93.4033 40.543 94.165 40.3525 94.6924 39.9717C95.2295 39.5908 95.498 39.0244 95.498 38.2725C95.498 37.8525 95.3809 37.4814 95.1465 37.1592C94.9121 36.8271 94.5654 36.5098 94.1064 36.207C93.6572 35.9043 92.7344 35.4209 91.3379 34.7568C90.0293 34.1416 89.0479 33.5508 88.3936 32.9844C87.7393 32.418 87.2168 31.7588 86.8262 31.0068C86.4355 30.2549 86.2402 29.376 86.2402 28.3701C86.2402 26.4756 86.8799 24.9863 88.1592 23.9023C89.4482 22.8184 91.2256 22.2764 93.4912 22.2764C94.6045 22.2764 95.6641 22.4082 96.6699 22.6719C97.6855 22.9355 98.7451 23.3066 99.8486 23.7852L98.3838 27.3154C97.2412 26.8467 96.2939 26.5195 95.542 26.334C94.7998 26.1484 94.0674 26.0557 93.3447 26.0557C92.4854 26.0557 91.8262 26.2559 91.3672 26.6562C90.9082 27.0566 90.6787 27.5791 90.6787 28.2236C90.6787 28.624 90.7715 28.9756 90.957 29.2783C91.1426 29.5713 91.4355 29.8594 91.8359 30.1426C92.2461 30.416 93.208 30.9141 94.7217 31.6367C96.7236 32.5938 98.0957 33.5557 98.8379 34.5225C99.5801 35.4795 99.9512 36.6562 99.9512 38.0527ZM110.381 40.7334C111.162 40.7334 112.1 40.5625 113.193 40.2207V43.5459C112.08 44.0439 110.713 44.293 109.092 44.293C107.305 44.293 106.001 43.8438 105.181 42.9453C104.37 42.0371 103.965 40.6797 103.965 38.873V30.9775H101.826V29.0879L104.287 27.5938L105.576 24.1367H108.433V27.623H113.018V30.9775H108.433V38.873C108.433 39.5078 108.608 39.9766 108.96 40.2793C109.321 40.582 109.795 40.7334 110.381 40.7334ZM126.919 44L126.055 41.7734H125.938C125.186 42.7207 124.409 43.3799 123.608 43.751C122.817 44.1123 121.782 44.293 120.503 44.293C118.931 44.293 117.69 43.8438 116.782 42.9453C115.884 42.0469 115.435 40.7676 115.435 39.1074C115.435 37.3691 116.04 36.0898 117.251 35.2695C118.472 34.4395 120.308 33.9805 122.759 33.8926L125.601 33.8047V33.0869C125.601 31.4268 124.751 30.5967 123.052 30.5967C121.743 30.5967 120.205 30.9922 118.438 31.7832L116.958 28.7656C118.843 27.7793 120.933 27.2861 123.228 27.2861C125.425 27.2861 127.109 27.7646 128.281 28.7217C129.453 29.6787 130.039 31.1338 130.039 33.0869V44H126.919ZM125.601 36.4121L123.872 36.4707C122.573 36.5098 121.606 36.7441 120.972 37.1738C120.337 37.6035 120.02 38.2578 120.02 39.1367C120.02 40.3965 120.742 41.0264 122.188 41.0264C123.223 41.0264 124.048 40.7285 124.663 40.1328C125.288 39.5371 125.601 38.7461 125.601 37.7598V36.4121ZM143.794 27.3154C144.399 27.3154 144.902 27.3594 145.303 27.4473L144.966 31.6367C144.604 31.5391 144.165 31.4902 143.647 31.4902C142.222 31.4902 141.108 31.8564 140.308 32.5889C139.517 33.3213 139.121 34.3467 139.121 35.665V44H134.653V27.623H138.037L138.696 30.377H138.916C139.424 29.459 140.107 28.7217 140.967 28.165C141.836 27.5986 142.778 27.3154 143.794 27.3154ZM155.176 40.7334C155.957 40.7334 156.895 40.5625 157.988 40.2207V43.5459C156.875 44.0439 155.508 44.293 153.887 44.293C152.1 44.293 150.796 43.8438 149.976 42.9453C149.165 42.0371 148.76 40.6797 148.76 38.873V30.9775H146.621V29.0879L149.082 27.5938L150.371 24.1367H153.228V27.623H157.812V30.9775H153.228V38.873C153.228 39.5078 153.403 39.9766 153.755 40.2793C154.116 40.582 154.59 40.7334 155.176 40.7334ZM168.096 30.4941C167.148 30.4941 166.406 30.7969 165.869 31.4023C165.332 31.998 165.024 32.8477 164.946 33.9512H171.216C171.196 32.8477 170.908 31.998 170.352 31.4023C169.795 30.7969 169.043 30.4941 168.096 30.4941ZM168.726 44.293C166.089 44.293 164.028 43.5654 162.544 42.1104C161.06 40.6553 160.317 38.5947 160.317 35.9287C160.317 33.1846 161.001 31.0654 162.368 29.5713C163.745 28.0674 165.645 27.3154 168.066 27.3154C170.381 27.3154 172.183 27.9746 173.472 29.293C174.761 30.6113 175.405 32.4326 175.405 34.7568V36.9248H164.844C164.893 38.1943 165.269 39.1855 165.972 39.8984C166.675 40.6113 167.661 40.9678 168.931 40.9678C169.917 40.9678 170.85 40.8652 171.729 40.6602C172.607 40.4551 173.525 40.1279 174.482 39.6787V43.1357C173.701 43.5264 172.866 43.8145 171.978 44C171.089 44.1953 170.005 44.293 168.726 44.293ZM184.224 44.293C182.3 44.293 180.786 43.5459 179.683 42.0518C178.589 40.5576 178.042 38.4873 178.042 35.8408C178.042 33.1553 178.599 31.0654 179.712 29.5713C180.835 28.0674 182.378 27.3154 184.341 27.3154C186.401 27.3154 187.974 28.1162 189.058 29.7178H189.204C188.979 28.4971 188.867 27.4082 188.867 26.4512V21.207H193.35V44H189.922L189.058 41.876H188.867C187.852 43.4873 186.304 44.293 184.224 44.293ZM185.791 40.7334C186.934 40.7334 187.769 40.4014 188.296 39.7373C188.833 39.0732 189.126 37.9453 189.175 36.3535V35.8701C189.175 34.1123 188.901 32.8525 188.354 32.0908C187.817 31.3291 186.938 30.9482 185.718 30.9482C184.722 30.9482 183.945 31.373 183.389 32.2227C182.842 33.0625 182.568 34.2881 182.568 35.8994C182.568 37.5107 182.847 38.7217 183.403 39.5322C183.96 40.333 184.756 40.7334 185.791 40.7334Z" fill="white"/>
</g>
</g>
<g id="Hero Image">
</g>
</g>
<defs>
<linearGradient id="paint0_linear_0_1" x1="757.739" y1="78.7711" x2="693.83" y2="-209.834" gradientUnits="userSpaceOnUse">
<stop stop-color="#2262B9"/>
<stop offset="1" stop-color="#2AB7FA"/>
</linearGradient>
<clipPath id="clip0_0_1">
<rect width="1740" height="114" fill="white" transform="translate(-1520 -25)"/>
</clipPath>
<clipPath id="clip1_0_1">
<rect width="220" height="114" fill="white" transform="translate(0 -25)"/>
</clipPath>
</defs>
</svg>
