<svg width="300" height="114" viewBox="0 0 300 114" fill="none" xmlns="http://www.w3.org/2000/svg">
<g clip-path="url(#clip0_0_4)">
<rect y="12" width="300" height="90" rx="45" fill="url(#paint0_linear_0_4)"/>
<path d="M62.1064 69V47.584H66.6475V65.25H75.334V69H62.1064ZM85.5 55.4941C84.5527 55.4941 83.8105 55.7969 83.2734 56.4023C82.7363 56.998 82.4287 57.8477 82.3506 58.9512H88.6201C88.6006 57.8477 88.3125 56.998 87.7559 56.4023C87.1992 55.7969 86.4473 55.4941 85.5 55.4941ZM86.1299 69.293C83.4932 69.293 81.4326 68.5654 79.9482 67.1104C78.4639 65.6553 77.7217 63.5947 77.7217 60.9287C77.7217 58.1846 78.4053 56.0654 79.7725 54.5713C81.1494 53.0674 83.0488 52.3154 85.4707 52.3154C87.7852 52.3154 89.5869 52.9746 90.876 54.293C92.165 55.6113 92.8096 57.4326 92.8096 59.7568V61.9248H82.248C82.2969 63.1943 82.6729 64.1855 83.376 64.8984C84.0791 65.6113 85.0654 65.9678 86.335 65.9678C87.3213 65.9678 88.2539 65.8652 89.1328 65.6602C90.0117 65.4551 90.9297 65.1279 91.8867 64.6787V68.1357C91.1055 68.5264 90.2705 68.8145 89.3818 69C88.4932 69.1953 87.4092 69.293 86.1299 69.293ZM106.843 69L105.979 66.7734H105.861C105.109 67.7207 104.333 68.3799 103.532 68.751C102.741 69.1123 101.706 69.293 100.427 69.293C98.8545 69.293 97.6143 68.8438 96.7061 67.9453C95.8076 67.0469 95.3584 65.7676 95.3584 64.1074C95.3584 62.3691 95.9639 61.0898 97.1748 60.2695C98.3955 59.4395 100.231 58.9805 102.683 58.8926L105.524 58.8047V58.0869C105.524 56.4268 104.675 55.5967 102.976 55.5967C101.667 55.5967 100.129 55.9922 98.3613 56.7832L96.8818 53.7656C98.7666 52.7793 100.856 52.2861 103.151 52.2861C105.349 52.2861 107.033 52.7646 108.205 53.7217C109.377 54.6787 109.963 56.1338 109.963 58.0869V69H106.843ZM105.524 61.4121L103.796 61.4707C102.497 61.5098 101.53 61.7441 100.896 62.1738C100.261 62.6035 99.9434 63.2578 99.9434 64.1367C99.9434 65.3965 100.666 66.0264 102.111 66.0264C103.146 66.0264 103.972 65.7285 104.587 65.1328C105.212 64.5371 105.524 63.7461 105.524 62.7598V61.4121ZM123.718 52.3154C124.323 52.3154 124.826 52.3594 125.227 52.4473L124.89 56.6367C124.528 56.5391 124.089 56.4902 123.571 56.4902C122.146 56.4902 121.032 56.8564 120.231 57.5889C119.44 58.3213 119.045 59.3467 119.045 60.665V69H114.577V52.623H117.961L118.62 55.377H118.84C119.348 54.459 120.031 53.7217 120.891 53.165C121.76 52.5986 122.702 52.3154 123.718 52.3154ZM143.317 69H138.85V59.4346C138.85 58.2529 138.64 57.3691 138.22 56.7832C137.8 56.1875 137.131 55.8896 136.213 55.8896C134.963 55.8896 134.06 56.3096 133.503 57.1494C132.946 57.9795 132.668 59.3613 132.668 61.2949V69H128.2V52.623H131.613L132.214 54.7178H132.463C132.961 53.9268 133.645 53.3311 134.514 52.9307C135.393 52.5205 136.389 52.3154 137.502 52.3154C139.406 52.3154 140.852 52.833 141.838 53.8682C142.824 54.8936 143.317 56.3779 143.317 58.3213V69ZM165.129 69L159.973 52.1982H159.841C160.026 55.6162 160.119 57.8965 160.119 59.0391V69H156.062V47.584H162.243L167.312 63.9609H167.399L172.775 47.584H178.957V69H174.724V58.8633C174.724 58.3848 174.729 57.833 174.738 57.208C174.758 56.583 174.826 54.9229 174.943 52.2275H174.812L169.289 69H165.129ZM187.57 60.7822C187.57 62.4033 187.834 63.6289 188.361 64.459C188.898 65.2891 189.768 65.7041 190.969 65.7041C192.16 65.7041 193.015 65.2939 193.532 64.4736C194.06 63.6436 194.323 62.4131 194.323 60.7822C194.323 59.1611 194.06 57.9453 193.532 57.1348C193.005 56.3242 192.141 55.9189 190.939 55.9189C189.748 55.9189 188.889 56.3242 188.361 57.1348C187.834 57.9355 187.57 59.1514 187.57 60.7822ZM198.894 60.7822C198.894 63.4482 198.19 65.5332 196.784 67.0371C195.378 68.541 193.42 69.293 190.91 69.293C189.338 69.293 187.951 68.9512 186.75 68.2676C185.549 67.5742 184.626 66.583 183.981 65.2939C183.337 64.0049 183.015 62.501 183.015 60.7822C183.015 58.1064 183.713 56.0264 185.109 54.542C186.506 53.0576 188.469 52.3154 190.998 52.3154C192.57 52.3154 193.957 52.6572 195.158 53.3408C196.359 54.0244 197.282 55.0059 197.927 56.2852C198.571 57.5645 198.894 59.0635 198.894 60.7822ZM211.726 52.3154C212.331 52.3154 212.834 52.3594 213.234 52.4473L212.897 56.6367C212.536 56.5391 212.097 56.4902 211.579 56.4902C210.153 56.4902 209.04 56.8564 208.239 57.5889C207.448 58.3213 207.053 59.3467 207.053 60.665V69H202.585V52.623H205.969L206.628 55.377H206.848C207.355 54.459 208.039 53.7217 208.898 53.165C209.768 52.5986 210.71 52.3154 211.726 52.3154ZM222.99 55.4941C222.043 55.4941 221.301 55.7969 220.764 56.4023C220.227 56.998 219.919 57.8477 219.841 58.9512H226.11C226.091 57.8477 225.803 56.998 225.246 56.4023C224.689 55.7969 223.938 55.4941 222.99 55.4941ZM223.62 69.293C220.983 69.293 218.923 68.5654 217.438 67.1104C215.954 65.6553 215.212 63.5947 215.212 60.9287C215.212 58.1846 215.896 56.0654 217.263 54.5713C218.64 53.0674 220.539 52.3154 222.961 52.3154C225.275 52.3154 227.077 52.9746 228.366 54.293C229.655 55.6113 230.3 57.4326 230.3 59.7568V61.9248H219.738C219.787 63.1943 220.163 64.1855 220.866 64.8984C221.569 65.6113 222.556 65.9678 223.825 65.9678C224.812 65.9678 225.744 65.8652 226.623 65.6602C227.502 65.4551 228.42 65.1279 229.377 64.6787V68.1357C228.596 68.5264 227.761 68.8145 226.872 69C225.983 69.1953 224.899 69.293 223.62 69.293Z" fill="white"/>
</g>
<defs>
<linearGradient id="paint0_linear_0_4" x1="-432.291" y1="70.9737" x2="-338.384" y2="425.099" gradientUnits="userSpaceOnUse">
<stop stop-color="#2AB7FA"/>
<stop offset="1" stop-color="#2262B9"/>
</linearGradient>
<clipPath id="clip0_0_4">
<rect width="300" height="114" fill="white"/>
</clipPath>
</defs>
</svg>
